<?xml version="1.0" standalone="no"?>
<!DOCTYPE svg PUBLIC "-//W3C//DTD SVG 20010904//EN"
 "http://www.w3.org/TR/2001/REC-SVG-20010904/DTD/svg10.dtd">
<svg version="1.0" xmlns="http://www.w3.org/2000/svg"
 width="512.000000pt" height="512.000000pt" viewBox="0 0 512.000000 512.000000"
 preserveAspectRatio="xMidYMid meet">

<g transform="translate(0.000000,512.000000) scale(0.100000,-0.100000)"
fill="#000000" stroke="none">
<path d="M1017 4849 c-251 -30 -480 -199 -596 -442 -83 -171 -76 -12 -76
-1827 0 -1538 1 -1618 18 -1680 93 -328 348 -553 668 -590 65 -8 559 -10 1594
-8 l1500 3 75 23 c317 98 532 358 570 690 8 68 10 552 8 1632 -4 1720 2 1576
-79 1749 -101 217 -285 374 -509 437 -62 17 -146 18 -1580 20 -854 1 -1549 -2
-1593 -7z m1159 -627 c36 -24 36 -38 33 -786 -4 -792 -5 -776 50 -813 24 -16
63 -18 434 -23 l409 -5 24 -28 c24 -28 24 -31 22 -205 -1 -97 -4 -141 -5 -97
-3 49 -7 74 -12 66 -7 -11 -14 -10 -39 8 -17 11 -37 21 -46 21 -9 0 -16 5 -16
10 0 6 -5 10 -12 10 -6 0 -31 9 -54 21 -23 11 -55 22 -70 25 -35 6 -46 13 -39
24 3 5 -16 12 -42 16 -57 8 -84 20 -80 37 1 6 -8 13 -20 15 -13 2 -23 9 -23
17 0 7 -10 15 -22 19 -19 5 -21 8 -8 16 10 7 -38 10 -150 10 -91 0 -183 5
-205 11 -44 13 -105 70 -105 100 0 10 -3 19 -8 19 -4 0 -6 18 -4 40 3 25 0 40
-7 40 -6 0 -11 -4 -11 -8 0 -10 -70 -8 -117 2 -18 4 -33 12 -33 18 0 6 -6 6
-15 -2 -12 -10 -16 -9 -21 4 -3 9 -12 16 -20 16 -8 0 -14 5 -14 10 0 6 -7 10
-16 10 -8 0 -13 4 -10 9 4 5 -3 7 -15 4 -12 -3 -24 -2 -28 4 -7 11 -135 73
-150 73 -6 0 -11 5 -11 11 0 6 -7 9 -15 5 -8 -3 -15 -1 -15 4 0 6 -20 10 -45
10 l-44 0 -4 -102 c-1 -57 -4 185 -5 537 l-2 640 24 50 c24 53 80 109 130 131
34 14 411 20 432 6z m1252 -298 c32 -22 43 -57 31 -94 -12 -34 -35 -50 -73
-50 -38 0 -55 10 -72 42 -38 73 47 149 114 102z m12 -554 c12 -12 20 -33 20
-55 0 -22 -8 -43 -20 -55 -12 -12 -33 -20 -55 -20 -22 0 -43 8 -55 20 -12 12
-20 33 -20 55 0 22 8 43 20 55 12 12 33 20 55 20 22 0 43 -8 55 -20z m-5 -545
c14 -13 25 -32 25 -42 0 -11 -6 -6 -16 15 -11 21 -24 32 -38 32 -11 0 -28 5
-36 10 -12 8 -9 10 13 10 16 0 38 -10 52 -25z m-85 11 c0 -2 -8 -10 -17 -17
-16 -13 -17 -12 -4 4 13 16 21 21 21 13z m-1635 -1021 c14 -13 25 -36 25 -50
0 -35 -42 -75 -77 -75 -62 0 -96 55 -68 109 24 48 81 56 120 16z m-573 -327
l3 -333 183 -3 182 -2 0 -60 0 -60 -223 0 c-185 0 -226 3 -245 16 l-22 15 0
380 0 379 60 0 60 0 2 -332z m900 200 l3 -83 78 -3 77 -3 0 -54 0 -54 -77 -3
-78 -3 -3 -120 c-5 -197 8 -225 103 -225 l55 0 0 -54 0 -53 -48 -7 c-113 -15
-197 30 -221 119 -6 22 -11 109 -11 193 l0 152 -55 0 -55 0 0 55 0 55 55 0 55
0 0 85 0 85 60 0 59 0 3 -82z m644 -97 c97 -43 152 -128 162 -248 l5 -63 -227
0 c-213 0 -226 -1 -226 -19 0 -24 38 -79 73 -105 23 -17 43 -21 102 -21 68 0
76 2 115 34 45 36 51 36 110 -9 l25 -19 -30 -31 c-100 -106 -297 -118 -417
-27 -27 20 -54 55 -73 92 -27 52 -30 68 -29 144 1 99 16 141 71 202 85 94 221
122 339 70z m693 -17 c30 -16 67 -47 83 -68 l28 -39 -47 -28 -48 -28 -20 24
c-75 87 -214 87 -280 0 -38 -49 -51 -123 -33 -179 11 -32 12 -43 3 -36 -6 5
-14 7 -18 4 -3 -3 -3 5 0 18 6 20 5 21 -10 10 -9 -8 -13 -20 -10 -29 5 -13 0
-14 -26 -8 -31 7 -33 6 -26 -15 4 -14 3 -20 -3 -16 -5 3 -15 26 -21 50 -32
128 7 248 104 322 56 42 101 55 190 51 66 -3 90 -8 134 -33z m658 0 c88 -55
144 -176 129 -283 -9 -64 -34 -137 -53 -153 -15 -12 -15 -11 -4 11 7 13 9 21
3 18 -5 -4 -24 4 -42 18 l-32 24 -25 -27 c-24 -26 -24 -26 2 15 35 54 45 101
34 159 -17 91 -82 144 -174 144 -99 0 -175 -81 -175 -186 0 -56 14 -91 53
-134 18 -19 23 -28 12 -20 -11 8 -29 25 -40 38 -19 22 -22 23 -34 8 -8 -10
-29 -16 -52 -16 l-38 0 -4 -47 c-2 -27 -4 66 -5 205 l-2 252 55 0 55 0 0 -35
c0 -41 3 -42 33 -14 46 44 96 60 179 56 64 -3 85 -9 125 -33z m-2317 -259 l0
-285 -60 0 -60 0 0 285 0 285 60 0 60 0 0 -285z m1710 -121 c0 -2 -8 0 -19 5
-10 6 -22 7 -26 3 -5 -4 -5 -1 -1 6 5 9 12 9 27 2 10 -6 19 -13 19 -16z m-319
-21 c13 -16 12 -17 -3 -4 -10 7 -18 15 -18 17 0 8 8 3 21 -13z m354 7 c3 -5 2
-10 -4 -10 -5 0 -13 5 -16 10 -3 6 -2 10 4 10 5 0 13 -4 16 -10z m-105 -4 c0
-2 -8 -10 -17 -17 -16 -13 -17 -12 -4 4 13 16 21 21 21 13z m100 -49 c0 -2
-12 -14 -27 -28 l-28 -24 24 28 c23 25 31 32 31 24z m407 -3 c-3 -3 -12 -4
-19 -1 -8 3 -5 6 6 6 11 1 17 -2 13 -5z m233 -7 c0 -2 -10 -12 -22 -23 l-23
-19 19 23 c18 21 26 27 26 19z m-403 -39 c-3 -8 -6 -5 -6 6 -1 11 2 17 5 13 3
-3 4 -12 1 -19z m103 -34 c0 -2 -9 0 -20 6 -11 6 -20 13 -20 16 0 2 9 0 20 -6
11 -6 20 -13 20 -16z"/>
<path d="M2495 1496 c-40 -18 -82 -64 -90 -98 l-7 -28 167 0 166 0 -6 23 c-9
31 -36 67 -68 91 -33 25 -121 32 -162 12z"/>
<path d="M2961 1234 c0 -11 3 -14 6 -6 3 7 2 16 -1 19 -3 4 -6 -2 -5 -13z"/>
</g>
</svg>
